# xmcd CD database file
#
# Track frame offsets:
#	150
#	30744
#	54946
#	80693
#	111290
#	133824
#	164145
#	199751
#
# Disc length: 2963 seconds
#
# Revision: 0
# Processed by: cddbd v1.5.2PL0 Copyright (c) Steve Scherf et al.
# Submitted via: CDex 1.51
#
DISCID=700b9108
DTITLE=Jon Jang - Paper Son Paper Songs
DYEAR=2006
DGENRE=Jazz
TTITLE0=Flower Drum Song
TTITLE1=Sweet Whisper of a Flower
TTITLE2=Eye of the Snake
TTITLE3=Jasmine Among the Magnolias
TTITLE4=Woman Shaman of Alishan
TTITLE5=Butterfly Lovers Song
TTITLE6=Two Flowers on a Stem
TTITLE7=Nu Beginings
EXTD=YEAR: 2006
EXTT0=
EXTT1=
EXTT2=
EXTT3=
EXTT4=
EXTT5=
EXTT6=
EXTT7=
PLAYORDER=
